<svg width="24" height="24" viewBox="0 0 24 24" fill="none" xmlns="http://www.w3.org/2000/svg">
<path fill-rule="evenodd" clip-rule="evenodd" d="M2.75 12C2.75 11.3096 3.30964 10.75 4 10.75H18C18.6904 10.75 19.25 11.3096 19.25 12C19.25 12.6904 18.6904 13.25 18 13.25H4C3.30964 13.25 2.75 12.6904 2.75 12Z" fill="#CA2EBD"/>
<path fill-rule="evenodd" clip-rule="evenodd" d="M13.1997 5.03969C13.7301 4.59774 14.5183 4.66939 14.9602 5.19974L19.9602 11.1997C20.3465 11.6633 20.3465 12.3366 19.9602 12.8002L14.9602 18.8002C14.5183 19.3305 13.7301 19.4022 13.1997 18.9602C12.6694 18.5183 12.5977 17.7301 13.0397 17.1997L17.3728 12L13.0397 6.8002C12.5977 6.26985 12.6694 5.48165 13.1997 5.03969Z" fill="#CA2EBD"/>
</svg>
